<?xml version="1.0" encoding="UTF-8" standalone="no"?>
<!-- Created with Inkscape (http://www.inkscape.org/) -->

<svg
   xmlns:svg="http://www.w3.org/2000/svg"
   xmlns="http://www.w3.org/2000/svg"
   version="1.1"
   width="195.601"
   height="192.72099"
   viewBox="0 0 195.601 192.721"
   id="Layer_1"
   xml:space="preserve"><defs
   id="defs19" />
    
    <g
   id="g3">
        
        <g
   id="g5">
            
            <path
   d="M 0,65.76 C 4.046,58.366 11.25,54.13 15.84,47.28 14.83,46.691 13.596,46.323 12.72,45.6 c 1.677,-0.03 2.579,1.836 3.84,1.44 1.294,-1.14 -2.066,-2.18 -1.68,-3.12 0.926,0.674 1.475,1.726 2.64,2.16 1.954,-1.566 4.67,-2.37 7.2,-3.36 -0.087,-1.04 -1.15,-2.361 -0.48,-3.36 0.298,1.222 0.043,2.997 1.44,3.12 0.036,-0.444 0.813,-0.147 0.96,-0.48 l 0.12,0.36 0.12,-0.36 c 0.534,-0.187 0.936,-0.504 1.68,-0.48 0.202,-1.171 -0.975,-2.212 -0.24,-3.12 0.149,1.131 0.198,2.361 0.96,2.88 1.365,-0.635 2.621,-1.379 4.08,-1.92 C 32.377,24.589 32.807,9.697 38.16,0 c 0.08,0 0.16,0 0.24,0 1.882,6.863 2.772,12.856 5.76,18.72 1.469,2.882 3.714,5.618 3.84,10.08 1.333,-4.496 3.524,-9.122 5.28,-13.68 1.686,-4.377 2.72,-9.878 6.96,-12 0.55,0.218 -0.375,1.599 -0.48,2.4 -0.984,7.526 0.524,16.747 -0.24,24.48 -0.476,4.823 -3.277,8.012 -4.32,11.52 3.824,3.309 5.59,8 6.72,14.64 0.789,4.635 0.375,10.19 3.12,12.24 16.376,-1.315 30.594,-6.479 46.08,-7.2 11.497,-0.535 19.983,2.792 29.04,6.24 13.642,5.194 22.274,14.12 32.16,23.28 2.135,1.978 4.677,4.446 6.96,6.96 2.049,2.255 5.186,5.323 6.24,7.439 0.388,0.777 0.347,1.857 0.72,2.64 1.095,2.292 3.266,3.936 4.8,6 -0.39,0.932 -1.473,-1.335 -2.399,-1.439 1.467,2.532 3.008,4.991 3.6,8.4 -1.023,-1.137 -1.097,-3.224 -2.399,-4.08 0.794,2.805 1.638,5.562 1.439,9.359 -0.468,-0.412 -0.518,-1.242 -0.479,-2.16 -0.408,1.433 -0.241,3.439 -0.96,4.561 -0.53,-0.03 -0.103,-1.019 -0.24,-1.44 -0.698,1.382 -0.544,3.616 -1.44,4.8 -0.756,0.116 -0.18,-1.1 -0.72,-1.199 -0.679,0.922 -0.673,2.527 -0.96,3.84 -0.356,-0.204 -0.516,-0.604 -0.48,-1.2 -0.48,0.319 -0.534,1.065 -0.72,1.68 -1.246,-1.358 -1.135,0.913 -2.64,-0.239 -0.727,-0.557 -2.334,-0.983 -3.12,-2.16 0.163,4.306 -1.646,9.617 0.96,12.24 2.946,1.429 7.43,-0.914 10.32,0.479 3.054,5.986 2.576,15.504 4.8,22.32 0,1.359 0,2.72 0,4.08 -0.129,4.266 -0.902,7.515 -4.32,9.359 -4.598,2.482 -12.254,4.458 -17.76,2.16 -0.144,-2.498 1.548,-3.063 0.479,-5.279 2.25,-3.75 6.317,-5.684 10.561,-7.44 -0.491,-5.817 -0.449,-15.345 -6.48,-16.32 -6.383,-1.032 -15.89,0.796 -22.08,-1.439 -3.449,-1.246 -4.299,-3.17 -6.479,-6 -3.691,4.868 -1.9,9.689 1.439,12.96 1.325,1.297 3.287,2.346 3.601,3.84 0.573,2.738 -1.678,5.271 -2.88,7.68 -2.769,5.547 -4.705,8.129 -7.921,13.2 -1.532,2.417 -2.65,5.132 -4.319,6.24 -2.493,1.655 -6.858,1.396 -9.84,2.16 -0.88,0 -1.761,0 -2.641,0 -1.192,-1.354 -4.566,-0.13 -6.479,-1.2 0.459,-2.029 -0.917,-1.844 -1.92,-3.36 2.085,-2.916 3.342,-5.185 6.72,-6.24 2.49,-0.777 5.479,0.318 8.16,-0.72 2.502,-0.969 6.657,-8.346 6.96,-11.52 0.496,-5.199 -3.904,-7.578 -6.96,-10.32 -6.616,-5.937 -13.424,-13.17 -14.88,-23.521 -5.955,2.059 -13.4,3.356 -20.64,1.681 2.545,10.094 3.575,21.705 3.839,34.08 -2.874,5.893 -15.082,10.679 -20.879,5.04 0.41,-5.429 6.239,-7.087 9.84,-10.08 -1.034,-9.927 -3.124,-18.796 -6.72,-26.16 -2.907,6.178 -4.463,13.684 -6.24,21.12 -1.23,5.147 -3.567,10.238 -5.52,14.88 -0.736,1.749 -0.958,3.762 -1.68,5.04 -1.662,2.942 -6.792,4.628 -11.28,6 -1.329,0.406 -3.348,0.622 -5.52,0.479 -0.954,-1.526 -3.903,-1.057 -4.8,-2.64 1.367,-2.552 -0.648,-1.851 -0.48,-3.84 0.122,-1.442 3.325,-4.045 4.56,-4.8 5.586,-3.415 9.718,-1.919 10.32,-10.32 0.391,-5.452 0.796,-12.947 1.2,-18.96 0.768,-11.448 -7.158,-17.076 -12.48,-23.04 -3.23,-3.619 -6.875,-8.245 -9.12,-12.96 -1.478,-3.105 -2.885,-4.566 -5.28,-7.44 -5.807,-6.968 -8.049,-16.221 -16.32,-20.88 -3.976,-2.239 -5.754,-4.689 -10.56,-3.6 -0.576,0.304 0.133,1.893 -0.48,2.16 -0.396,-0.031 0.754,-2.54 -0.96,-1.92 l 0.12,-0.36 -0.36,0.12 c -0.733,0.174 -0.875,-0.245 -1.44,-0.24 -0.71,0.649 0.23,2.95 -0.48,3.6 -0.139,-1.545 0.595,-5.23 -1.2,-4.32 l -0.12,-0.12 -0.12,-0.12 c -2.673,-1.133 -2.253,1.99 -3.6,2.88 0.31,-1.294 2.151,-2.783 1.2,-3.84 -1.278,-0.338 -1.242,2.554 -2.4,3.12 0.385,-1.417 2.074,-2.67 1.44,-4.32 -0.955,-0.626 -1.106,2.666 -1.92,2.16 0.45,-1.07 1.125,-1.916 1.44,-3.12 C -0.06,73.957 0.501,69.609 0.003,67.681 0,67.04 0,66.4 0,65.76 z"
   id="path7"
   style="fill-rule:evenodd" />
            
            <g
   id="g9">
                
                <path
   d="m 25.8,38.04 c 0.048,1.514 0.753,2.843 0.96,4.32"
   id="path11"
   style="fill:none;stroke:#000000;stroke-width:0.28220001;stroke-linecap:round" />
                
                <path
   d="M 9,84.6 C 9.298,82.882 9.039,81.003 9.48,79.32"
   id="path13"
   style="fill:none;stroke:#000000;stroke-width:0.29499999;stroke-linecap:round" />
                
                <path
   d="M 5.16,82.92 C 5.281,81.371 5.788,79.924 5.88,78.36"
   id="path15"
   style="fill:none;stroke:#000000;stroke-width:0.29499999;stroke-linecap:round" />
                
            </g>
            
        </g>
        
    </g>
    
</svg>