<?xml version="1.0" encoding="UTF-8" standalone="no"?>
<!-- Created with Inkscape (http://www.inkscape.org/) -->

<svg
   xmlns:svg="http://www.w3.org/2000/svg"
   xmlns="http://www.w3.org/2000/svg"
   version="1.1"
   width="662"
   height="232"
   viewBox="0 0 662 232"
   id="Layer_1"
   xml:space="preserve"><defs
   id="defs7" />
    
    <path
   d="m 44.01,44.713 1.802,-0.463 1.477,0.196 2.218,0.295 1.926,0.255 4.317,1.647 5.906,4.089 5.453,4.999 6.816,7.725 3.294,4.088 c 0,0 -2.043,-0.226 8.066,0 10.109,0.227 4.487,0.057 6.815,0 2.328,-0.057 7.27,-2.726 7.27,-2.726 l 4.16,-1.665 c 0,0 4.607,-1.687 3.792,-1.516 -0.816,0.17 3.973,0 3.973,0 h 5.796 l 4.089,0.455 h 3.635 l 5.907,-0.909 9.541,-2.726 4.09,-2.726 2.521,-2.018 2.022,-1.617 c 0,0 -10.291,6.35 1.737,-1.008 0.827,-0.506 1.758,-1.077 2.807,-1.718 0.301,0.452 1.004,0.754 1.808,0.957 1.617,0.406 3.645,0.406 3.645,0.406 l 3.101,-0.238 2.834,-0.003 3.353,0.639 2.801,-0.799 3.36,-0.961 3.303,-2.374 2.209,-1.588 1.758,-1.264 2.098,-1.152 2.447,-1.346 1.803,-0.228 1.377,0.228 c 0,0 -0.588,0.743 -0.355,1.348 0.233,0.604 -0.312,0.482 0.355,0.922 0.667,0.44 1.456,0.244 1.456,0.244 0,0 0.54,0.22 1.473,0.06 0.934,-0.162 1.724,-1.292 1.724,-1.292 l 1.709,-1.282 1.555,-1.867 2.02,-2.424 0.969,-1.163 1.897,-1.627 1.282,-1.099 c 0,0 0.596,-0.27 0,1.817 -0.596,2.087 -0.298,1.875 -0.298,1.875 0,0 -0.298,1.164 0.298,1.306 0.596,0.142 1.789,-0.199 1.789,-0.199 l 1.846,-0.709 2.807,-1.684 c 0,0 1.357,-0.703 2.517,-1.39 0.228,-0.134 0.474,-0.235 0.649,-0.396 2.547,-2.323 0.682,-0.458 0.843,-0.62 0.356,-0.356 1.088,-1.089 1.704,-1.703 0.56,-0.559 1.405,-1.406 1.405,-1.406 l 0.789,-0.789 0.688,-0.419 0.512,-0.382 1.32,-0.298 h 1.576 2.002 1.706 c 0,0 1.05,0.642 3.144,-0.255 2.094,-0.895 2.164,-1.495 2.775,-2.003 0.611,-0.508 2.428,-2.087 2.428,-2.087 l 2.362,-1.972 2.364,-1.732 2.474,-1.408 v 1.023 l 1.534,1.022 0.639,0.682 0.764,0.19 0.713,0.633 2.72,-0.816 1.824,-0.547 3.228,-1.241 2.678,-1.032 h 2.726 l -0.284,2.158 0.567,1.023 h 1.875 l 2.258,-0.255 1.632,-1.269 2.13,-1.657 2.535,-1.17 3.713,-1.328 2.839,-0.229 h 3.637 c 0,0 0.625,0.511 1.817,0 1.193,-0.511 -0.455,1.534 -0.455,1.534 l 0.058,1.421 -0.284,1.419 c 0,0 0.127,0.66 0.681,0.625 0.554,-0.035 3.3,-0.207 3.3,-0.207 l 3.969,-0.249 h 5.908 7.381 3.069 l 8.299,0.251 6.695,0.204 4.749,0.904 2.516,0.479 2.277,0.434 v 1.135 1.021 1.023 0.909 l 3.498,1.166 6.043,2.015 3.33,2.495 2.122,1.594 3.641,1.455 5.45,2.181 5.047,1.717 6.311,2.146 4.771,4.088 7.042,4.771 7.953,6.134 9.086,7.725 7.953,7.27 5.679,5.68 5.452,5.225 5.682,6.134 7.042,7.271 3.635,4.315 2.955,2.726 6.814,4.09 9.313,4.089 8.634,2.726 10.886,3.482 8.424,3.107 9.772,4.543 7.949,2.727 7.952,2.273 8.179,1.589 8.635,2.272 8.404,2.271 7.952,2.5 7.269,2.726 7.272,2.5 7.271,2.045 5.461,1.56 5.53,0.842 4.955,0.625 6.599,0.791 5.88,0.669 3.835,0.255 4.089,-0.085 5.027,-0.084 6.304,-0.086 h 2.813 l 3.698,-0.234 2.832,-0.618 5.226,-1.703 4.088,-1.704 3.41,-1.278 2.5,-1.222 3.291,-1.718 2.344,-1.661 2.174,-1.618 1.278,-1.364 0.511,-1.49 -0.128,-1.577 -0.555,-1.404 -0.554,-0.938 -0.896,-1.576 -1.446,-1.873 -1.479,-1.364 -1.364,-1.363 3.229,0.869 3.02,1.219 2.613,1.774 1.175,1.274 1.367,1.807 1.094,3.962 v 3.407 l -1.689,3.067 -4.216,3.668 -5.978,3.622 -5.611,3.274 -4.362,1.9 -4.157,1.55 -5.169,1.379 -5.396,1.078 -6.943,0.994 -8.278,0.596 h -7.778 -7.444 l -9.488,-0.607 -6.3,-0.642 -7.353,-0.892 -7.529,-1.267 L 535,154.75 523.5,152 l -11.75,-2.75 -11.394,-1.051 -5.682,0.225 -8.171,-0.152 -9.55,1.29 -11.357,0.908 -21.128,0.455 -11.361,0.907 -19.538,4.09 -17.039,5.452 -6.789,1.829 -5.024,1.353 -9.403,1.933 -7.18,1.476 -6.527,1.329 -5.741,1.168 -6.14,0.749 -3.176,0.387 -1.203,1.89 -1.977,3.109 -1.66,1.972 -1.976,2.346 -1.015,2.437 -1.258,3.016 -3.635,2.046 -3.728,0.579 -3.542,0.554 -1.701,0.567 -2.387,0.797 -1.51,1.131 -2.125,1.596 -2.638,1.317 -2.362,1.183 -2.272,1.817 -1.363,1.364 -1.364,-1.82 v -3.632 l -0.907,-1.139 h -2.047 -3.18 l -1.187,1.088 -1.54,1.412 -2.271,1.589 -2.5,2.502 h -1.816 l -0.682,-3.182 v -2.953 l -1.135,-1.363 -1.819,0.452 -1.817,2.044 -1.192,1.192 -1.306,1.308 -1.591,2.502 -1.776,-2.285 -1.404,-1.806 -1.905,0.224 -1.958,0.229 -0.908,-2.271 v -2.5 l 0.455,-1.932 -1.135,-0.565 -3.859,0.148 -5.786,0.225 -6.37,0.247 -7.386,0.287 -4.857,0.43 -7.612,0.675 -5.48,0.485 -2.699,1.406 -2.979,1.55 -3.43,3.164 -2.479,2.288 -2.045,2.952 -2.044,1.818 2.272,1.361 1.136,2.046 -0.227,2.829 -0.186,2.312 -1.108,2.458 -1.207,2.171 -0.226,-1.138 -0.568,-1.591 -1.476,-1.136 -1.591,-0.682 -3.408,-0.683 h -4.089 l -1.215,0.957 -1.965,1.543 -0.654,1.62 -0.028,2.926 -2.045,-1.137 -2.726,-3.181 -1.818,-3.181 -1.364,-1.818 -3.408,-0.682 -2.271,1.138 -2.216,1.882 -1.93,1.071 -1.271,1.562 -1.853,1.391 -0.682,1.818 -1.135,-1.363 -0.69,-2.069 -0.673,-2.021 0.17,-2.471 -1.306,-1.392 -2.272,-1.135 -3.408,-1.137 -4.317,2.271 -1.367,1.459 -2.041,2.177 -1.978,0.496 -1.655,0.413 1.362,-4.998 2.674,-2.775 3.46,-3.588 3.418,-1.913 2.26,-1.265 6.135,-0.683 4.773,-0.118 4.542,-0.109 3.634,-2.272 2.396,-2.264 1.693,-1.599 0.681,-3.407 -3.54,-0.182 -7.82,-0.402 -6.36,-0.325 -6.25,-0.141 -7.266,-0.16 -6.931,-0.154 -7.101,-1.092 -4.713,-0.724 -7.582,-1.336 -4.004,-0.71 h -3.977 -5.337 -4.998 -7.269 -3.864 l -2.478,0.538 -3.027,0.653 -2.9,0.625 -2.925,0.788 -3.993,1.076 -4.895,1.317 -3.824,0.683 -4.41,0.787 -4.489,0.801 -3.343,0.591 -4.381,0.773 -3.762,-0.243 -3.281,-0.21 -3.669,0.732 -4.282,0.856 -2.158,1.25 -2.159,1.25 -1.951,0.743 -2.819,1.073 -1.704,0.567 -2.385,0.796 -4.071,0.34 -4.108,0.342 -3.303,-0.246 -2.832,-0.206 -3.55,-0.999 -3.72,-1.046 -2.722,-1.364 -1.822,-0.911 -1.071,-1.069 -0.804,-1.179 -0.539,-2.833 0.37,-1.73 1.081,-2.521 0.964,-2.251 1.646,-2.113 1.982,-2.548 2.734,-3.516 3.773,-4.19 3.22,-3.579 3.23,-3.589 2.428,-4.297 1.772,-3.136 1.707,-3.02 1.688,-4.367 2.175,-5.627 1.59,-3.182 0.127,-7.274 0.1,-5.676 v -3.636 l 2.045,-5.338 1.734,-2.393 1.838,-2.537 c 0,0 1.671,-2.252 2.108,-2.908 1.022,-3.408 2.271,-3.408 2.271,-3.408 0,0 -0.169,-2.623 -0.25,-5.444 -0.096,-3.307 -0.072,-6.884 0.479,-6.823 1.022,0.113 -0.455,-3.977 0.454,-4.089 0.521,-0.065 -0.225,-1.767 -0.957,-3.211 -0.548,-1.08 -1.088,-2.015 -1.088,-2.015 l -5.679,-1.817 -4.292,-3.89 -2.979,-2.698 -2.839,-4.544 -0.847,-2.949 -0.333,-4.327 0.145,-5.691 1.246,-4.977 0.635,-1.596 0.747,-1.882 0.66,-1.662 0.903,-1.327 0.473,-0.648 0.507,-0.696 0.925,-0.818 1.487,-0.577 z"
   id="path3" />
    
</svg>