<?xml version="1.0" encoding="UTF-8" standalone="no"?>
<!-- Created with Inkscape (http://www.inkscape.org/) -->

<svg
   xmlns:svg="http://www.w3.org/2000/svg"
   xmlns="http://www.w3.org/2000/svg"
   version="1.1"
   width="758"
   height="380"
   viewBox="0 0 758 380"
   id="Layer_1"
   xml:space="preserve"><defs
   id="defs13" />
    
    <g
   id="g3">
        
        <g
   id="g5">
            
            <path
   d="m 355,0 c 0.333,0 0.667,0 1,0 0.047,0.075 -0.059,0.989 0,1 9.207,1.673 19.025,-0.31 28,1 5.332,0.778 10.558,3.409 16,4 2.218,0.241 4.943,-0.442 7,0 5.364,1.152 10.835,4.765 17,7 6.381,2.313 13.431,2.984 19,5 11.76,4.255 24.109,12.399 36,18 18.863,8.884 32.503,16.468 44,30 2.928,-0.261 3.072,2.261 6,2 5.357,8.055 13.614,13.658 20,22 2.167,2.832 1.785,2.766 4,7 5.062,9.676 14.062,15.25 14,26 3.201,3.799 4.058,9.942 7,14 -0.611,7.801 -0.16,14.806 3,21 -3.94,6.462 1.779,17.366 3,25 -3.629,0.962 -0.84,-4.493 -4,-4 1.645,6.191 6.051,16.784 2,20 4.588,14.318 -1.808,37.028 -1,53 -1.701,0.367 -1.887,-0.78 -2,-2 -0.857,5.198 -3.053,9.569 -2,14 -1,0 -2,0 -3,0 0.871,8.431 -4.809,12.584 -2,20 0.182,3.834 -0.818,0.362 -3,1 0.595,2.071 -1.236,6.569 1,7 -6.479,3.887 -1.659,16.507 -6,23 34.032,0.413 59.318,-11.748 91,-7 9.215,1.381 18.008,4.091 27,6 9.361,1.987 15.083,6.164 23,9 7.453,2.669 15.824,3.229 23,5 1.187,0.293 2.751,1.88 4,2 7.448,0.715 14.547,-2.729 20,1 3.1,2.12 9.265,7.16 9,13 -17.819,5.389 -42.424,6.821 -59,-1 -2.822,1.273 -4.721,1.986 -7,2 -4.499,0.027 -0.883,-3.355 -6,-1 -1.602,0.737 -4.953,-0.236 -7,3 -3.046,-3.112 5.824,-2.793 6,-6 -5.061,4.049 -10.774,2.393 -15,6 -2.797,-1.286 3.15,-2.067 2,-5 -1.185,-0.793 -6.815,2.475 -8,5 -1.499,-5.019 -3.606,-1.025 -8,-1 0.354,-1.313 1.761,-1.572 2,-3 -3.556,0.387 -4.27,1.674 -7,2 0.067,-0.008 1.16,-1.972 1,-2 -3.059,-0.536 -4.13,3.401 -7,2 0.354,-1.313 1.761,-1.572 2,-3 -3.417,-0.75 -1.271,4.063 -5,3 -0.282,-1.615 0.945,-1.722 1,-3 -2.822,-0.155 -2.507,2.827 -4,4 -2.487,-0.15 -0.292,-3.387 0,-4 -2.863,-0.197 -5.458,-0.124 -5,3 -2.078,-0.56 -2.119,-1.56 -1,-3 -6.232,-0.622 -10.561,5.06 -16,2 -0.88,-3.213 3.296,-1.37 3,-4 -2.896,0.892 -9.985,1.802 -14,3 -0.282,-1.615 0.945,-1.722 1,-3 -1.382,-1.639 -4.618,3.324 -6,5 -3.363,-1.614 3.144,-3.166 0,-5 -7.009,-0.104 -8.504,1.365 -15,3 0.3,-2.7 4.207,-1.793 5,-4 -31.657,13.709 -76.237,12.444 -119,18 -5.415,0.703 -10.544,3.39 -16,4 -10.633,1.189 -21.085,-0.221 -33,1 -6.226,0.638 -12.213,3.05 -18,3 -2.458,-0.021 -4.642,-1.275 -7,-1 -6.394,0.748 -12.418,4.271 -19,5 -11.263,1.248 -26.647,2.493 -33,-3 -7.838,4.039 -24.603,3.775 -35,2 -1.896,6.096 -11.537,5.52 -17,3 -7.103,1.667 -8.436,10.636 -18,7 -1.151,-1.182 -1.132,-3.535 -1,-6 -10.487,-2.644 -18.475,1.866 -26,1 -0.321,-6.654 5.201,-7.466 8,-11 19.134,1.747 32.007,-5.866 51,-8 10.948,-1.23 31.68,-3.179 22,-18 -6.498,-9.95 -19.278,-22.745 -27,-30 -6.407,-0.26 -10.448,-2.885 -15,-5 -11.386,8.947 -29.963,10.703 -36,25 -10.199,0.135 -13.74,6.927 -26,5 -8.892,1.867 -18.12,8.422 -27,7 -7.711,2.955 -11.583,9.751 -20,12 -3.433,4.234 -7.901,7.433 -13,10 -16.251,-0.618 -26.703,2.45 -42,4 -3.435,-2.175 -11.97,-3.65 -11,-7 -6.527,-0.525 -7.895,-0.053 -15,0 6.906,-5.427 12.64,-12.027 26,-11 3.073,-0.261 4.497,-2.17 7,-3 17.568,0.568 25.53,-8.47 32,-19 -0.28,-8.883 0.918,-15.398 -2,-22 -0.543,-1.229 -2.171,-1.635 -3,-3 -0.778,-1.283 0.419,-2.441 0,-3 -0.926,-1.234 -2.803,-0.025 -4,-1 0.738,0.601 -1.852,-7.83 -7,-6 -1.773,-6.56 -11.279,-5.387 -14,-11 -1.283,2.593 -5.979,-0.77 -6,1 -1.172,-0.161 -0.843,-1.823 -1,-3 -1.912,2.451 -7.095,0.709 -8,-1 -7.631,3.51 -15.439,2.062 -22,4 -1.794,0.53 -3.381,2.626 -5,3 -1.587,0.366 -1.813,-1.294 -3,-1 0.564,-0.14 -4.099,1.664 -3,1 -2.666,1.61 -2.499,3.359 -4,5 -1.172,-0.161 -0.843,-1.823 -1,-3 -5.72,4.947 -12.873,8.461 -16,16 -2.826,-0.826 -2.591,1.409 -5,1 0.594,8.406 7.317,10.683 8,19 -3.142,-5.192 -7.82,-8.847 -9,-16 -7.167,1.507 -1.985,8.616 0,12 -3.376,3.578 -3.126,-8.93 -7,-5 -1.639,2.356 4.316,5.646 3,11 -3.08,-1.587 -2.077,-7.256 -5,-9 -10.546,6.787 -19.935,14.732 -29,23 -12.426,1.093 -15.781,-6.886 -19,-15 0,-3.333 0,-6.667 0,-10 5.056,-5.251 7.544,-16.698 10,-26 9.684,-36.674 11.497,-75.208 19,-110 1.598,-4.356 2.555,2.412 3,-2 1.876,-7.458 5.638,-13.029 7,-21 3.257,-1.076 3.324,-5.343 7,-6 2.472,-10.195 10.015,-15.319 12,-26 2.889,0.985 3.62,-1.904 6,-3 1.54,-0.709 4.94,-0.388 6,-1 3.498,-2.02 5.581,-6.079 9,-8 3.752,-2.109 9.159,-1.621 11,-7 6.172,1.1 9.178,-2.697 15,-5 -2.102,4.851 7.424,-1.034 10,2 3.626,-0.741 7.374,-6.581 11,-4 -0.891,0.586 -5.704,2.102 -3,3 2.161,-3.775 5.838,-0.685 9,0 4.496,-2.271 10.306,-3.06 13,-2 13.363,-5.662 30.419,-10.023 43,-21 9.929,-1.507 16.495,-8.057 25,-11 8.74,-3.024 15.191,-3.085 20,-9 1.576,0.09 0.783,2.55 3,2 4.283,-4.282 7.437,-7.036 11,-10 4.635,-0.857 1.048,1.574 3,2 3.492,-2.508 6.134,-5.866 9,-9 9.344,-2.623 14.208,-12.902 23,-13 18.01,-14.991 47.095,-18.905 73,-26 z"
   id="path7"
   style="fill-rule:evenodd" />
            
            <g
   id="g9" />
            
        </g>
        
    </g>
    
</svg>