<?xml version="1.0" encoding="UTF-8" standalone="no"?>
<!-- Created with Inkscape (http://www.inkscape.org/) -->

<svg
   xmlns:svg="http://www.w3.org/2000/svg"
   xmlns="http://www.w3.org/2000/svg"
   version="1.1"
   width="2687.1875"
   height="1796.5625"
   id="svg2">
  <defs
     id="defs6" />
  <path
     d="m 133.43182,692.55682 c -19.20468,-9.32545 -113.787809,-39.29935 -61.035004,-41.58484 30.502364,8.14786 114.816674,-8.74797 104.724224,-2.04124 -22.23563,-7.2585 -114.730361,-38.18425 -48.52501,-34.32521 3.26602,0.80114 -96.746247,-32.66243 -15.59546,-26.98053 21.44999,-16.88832 97.90552,-15.00412 64.5615,-46.40976 -26.32795,-40.41823 44.59075,39.65221 71.24317,7.83693 -33.34168,-11.78233 -71.77923,-24.02416 -107.08933,-35.98399 17.63247,-27.14108 70.74976,-42.2009 69.78143,-18.64712 -41.26016,-62.73575 39.16181,25.93075 36.03459,-8.96652 15.84121,-4.73319 -85.88854,-54.85909 -54.72566,-49.35809 54.66204,7.73175 -26.84664,-45.27957 45.22522,-7.22259 -22.24255,-37.34976 -31.75156,-45.58632 23.34007,-12.45528 55.0998,22.26445 -3.33414,-38.70367 59.83299,0.002 -16.97649,-17.34847 -100.85994,-68.27372 -35.31972,-44.21177 50.10626,18.5537 61.40277,-3.63848 23.01382,-41.55188 -32.41135,-42.34452 51.67313,37.87445 58.59086,12.61505 21.55126,35.37147 92.75845,53.57438 33.93872,12.48508 -8.06593,-47.07721 -19.43188,-49.22691 29.04292,-42.04144 65.66693,20.91261 17.66194,-32.85507 -11.55939,-49.44535 -6.56549,-11.33642 67.98201,21.0041 8.63004,-28.43871 26.10292,12.69956 84.14834,29.87991 26.2082,-9.94507 28.83674,-16.93362 98.87579,52.8904 83.17139,12.87703 4.5947,-9.2282 21.14927,-12.11866 -3.09189,-57.05885 16.12854,26.25595 98.36105,93.96177 81.66882,61.2154 -45.62558,-44.99427 -13.66887,-35.92444 -16.21098,-62.39243 40.30741,55.99436 24.64524,-28.80622 50.51946,37.07476 -4.39128,-37.62845 17.17351,-28.47094 -7.84075,-73.81436 -35.20505,-62.203184 13.95151,-21.13996 25.40387,16.18618 24.56438,16.80884 -12.81788,-54.92033 3.00746,-50.58476 15.4164,14.31494 70.09061,98.52525 55.70177,59.77435 13.88907,7.08287 15.03255,-84.001253 20.13301,-46.29606 13.96766,78.97131 31.97565,-25.014146 22.8002,-18.46981 31.83771,69.10243 -6.95671,-67.29469 32.16355,12.4685 14.03733,52.66958 69.71734,45.04536 25.46693,-2.20998 -32.27561,-31.895028 -35.9079,-78.664388 2.8604,-37.987499 28.1389,22.474195 44.10431,71.853419 24.64446,0.103889 32.70369,22.203122 11.87111,23.52059 45.37884,7.799259 42.52109,61.349261 46.36824,-24.220984 36.46913,-7.799259 14.82971,32.71691 -10.98471,-38.07437 20.32253,-38.65909 6.72209,48.563979 34.17283,47.505512 55.2273,69.03409 -2.2134,-50.195919 37.5031,-31.722399 26.4416,-32.044452 19.1347,27.742282 37.2561,-36.608227 18.4755,-36.434194 2.9736,39.743357 32.7235,54.526167 21.3556,-1.222152 4.6425,-79.252992 21.9275,58.344676 30.375,33.803078 -19.7892,-43.222944 29.3834,4.624478 26.6753,-52.827997 31.8265,3.72612 26.8256,62.567733 40.1528,-1.663965 10.8769,21.009063 49.5251,92.989882 30.6395,92.319532 1.2832,-22.356915 13.7156,-118.8071887 19.6734,-53.646733 -4.4728,72.194763 23.9828,-38.138602 15.4044,43.432793 8.7997,-66.076429 21.6963,-39.11253 29.1,-34.841185 5.106,-58.9241567 47.9771,17.772038 25.3302,45.146105 16.3337,44.50781 29.6088,-71.688246 41.2684,-30.756204 23.061,-4.180561 14.7017,55.506574 35.8456,19.813601 -6.428,-52.729271 30.3258,-49.241815 28.5959,3.297603 -0.9537,63.81494 16.3434,-27.552501 45.7204,11.39526 32.3441,-27.375404 48.4121,24.13145 39.3891,4.7981 23.9846,-44.664544 -1.0128,84.35563 27.5454,18.76473 18.5403,-51.598925 13.637,32.84154 49.2923,-2.7126 38.1398,-38.026719 -2.9336,87.04469 38.9905,21.36293 0.8055,51.56112 31.7365,-67.7292 21.1514,15.2763 1.3851,73.90774 6.075,-34.51093 26.4527,-15.43316 -4.7446,74.30723 7.4999,24.93033 19.0025,-19.04577 5.5138,21.33184 -11.5292,102.3077 29.4945,75.45729 -2.2411,-50.8772 44.904,-64.98837 31.5825,-4.82981 22.3114,24.71975 103.7304,-23.15063 69.6555,30.25968 2.4862,27.95025 58.6403,-77.50547 35.717,-12.45178 22.0734,-10.07445 7.0888,44.28759 38.2184,65.03301 32.0749,-35.84934 46.8828,43.1559 80.0796,-16.56819 -24.0286,52.23521 46.0197,-67.17092 35.8426,-12.3619 -28.0636,28.81179 10.3422,79.60378 41.4755,42.7369 -11.0862,87.47394 23.7017,-30.72187 28.7238,-3.80249 -6.7584,41.22565 17.7246,86.8014 63.3538,60.05324 21.1016,13.17479 48.8363,33.05684 42.9809,75.05291 17.4666,-34.24235 43.5791,-7.8085 71.0043,-15.60571 37.7392,8.66912 41.5551,91.10336 41.0234,17.08784 -1.3915,-75.96486 8.4175,-1.502 15.2434,32.89603 29.0367,39.34367 15.1448,-106.96644 22.6913,-52.58403 -6.3739,38.89871 13.4087,105.16758 15.7635,30.79576 29.3073,-12.92902 20.6624,-109.52819 31.1062,-40.63985 -5.3207,82.39803 38.7955,-16.62627 48.7085,8.76257 -5.5929,28.36383 38.3317,108.10306 32.7253,41.01572 18.6108,-62.54675 46.2419,11.40155 50.2011,19.3488 27.5677,-60.57512 21.3121,-2.0658 15.9436,34.23947 14.9795,26.14003 56.4625,-72.95058 47.9514,5.0118 -16.5482,29.64681 -1.8364,79.91054 30.936,33.56828 15.4382,-29.55225 51.8303,-33.44933 31.6543,3.63104 -23.5628,37.37642 22.0163,63.67214 -17.092,93.63276 -23.891,30.27344 -13.5016,78.34796 -12.3619,115.92222 31.939,25.10169 -8.0935,73.95473 33.6713,99.38031 21.1762,45.0967 20.8546,99.00441 4.9877,144.50386 -6.9098,38.6641 22.6437,78.114 6.5151,114.1008 -12.0028,46.0256 -21.3042,99.0289 -5.2586,148.1043 5.936,46.1111 4.8018,94.2944 30.6724,135.2399 -0.1748,34.7284 15.3337,68.209 9.734,100.6294 1.7844,56.8808 -54.4448,84.097 -99.6515,58.8369 -42.7683,-18.2246 -87.7422,-56.903 -138.0682,-24.8523 -49.3133,-16.0844 -112.7541,-45.2156 -168.4432,-52.4659 -62.4552,-1.1196 -118.7253,-86.4167 -176.7272,-5.5227 -49.3463,7.0753 -167.7588,-36.5683 -140.8296,66.2727 63.9094,88.0564 155.7897,34.702 231.9546,49.7045 38.8637,-41.1715 178.9367,7.0078 69.0341,11.0455 -73.7745,35.0919 121.814,-2.5502 57.9886,30.375 -60.0609,23.6715 -78.6169,88.351 -157.3977,82.8409 -111.0114,37.5945 -221.6787,-28.9891 -333.0895,-30.7202 -93.1031,12.1614 -213.5756,62.2465 -287.1387,-20.7533 -39.0786,-25.1294 -85.0169,-151.4439 -139.1468,-45.1742 -85.0581,16.0599 -184.1378,81.6021 -271.1314,22.0909 -49.2064,-3.1968 -118.2193,25.0624 -156.88,52.4659 -54.92708,-22.7402 -103.08747,-4.1674 -22.0909,22.0909 30.91104,27.1255 -134.20836,-22.2057 -58.54954,30.8065 -44.87944,0.8765 -102.68693,9.8694 -165.12096,10.6139 -60.0674,-16.0624 -168.59664,72.8511 -227.46729,-24.8522 -92.91016,-57.8083 -114.63017,-179.3578 -214.69602,-227.1222 -49.04971,-32.2369 -36.17232,-146.4264 -107.08913,-74.6431 -78.932441,17.6879 58.73184,-104.2398 -20.27876,-49.273 -42.0267,-1.487 -51.718313,-17.6887 -2.07103,-38.314 16.97615,-47.1236 -73.926246,20.4836 -38.65909,-46.9432 59.22747,-53.5752 -72.479981,16.0125 -22.09091,-27.6136 47.58553,-84.5552 -80.8522209,38.5072 -41.004836,-20.1608 15.839745,-44.1917 69.172516,-39.3853 18.913926,-66.3257 -0.960029,-33.6769 36.829591,-42.2344 0,-59.8658 61.95941,-16.9227 9.921039,-51.518 -22.873565,-15.0462 12.348801,-7.803 -16.035979,-62.0335 29.106667,-66.6903 -15.441226,-16.9136 -77.5391983,-48.27522 -14.683818,-58.70936 41.956116,-12.31655 -93.80285,-31.64337 -3.282641,-33.99277 71.105267,-24.18274 -77.929739,2.59395 -8.653702,-17.32924 44.46824,-7.00422 66.585579,-35.92316 31.640325,-40.29056 31.310454,-17.44144 -21.214332,-31.72258 46.755934,-37.1796 0.0449,-7.14141 -116.6010761,12.79339 -54.623969,-22.51296 74.688359,-15.29257 0.04881,-13.9697 -35.927094,-16.94887 -5.84636,-9.84974 73.894163,-11.79865 90.449643,-35.269 -4.71773,-14.79704 -93.179352,7.03245 -16.48732,-23.29251 -47.635422,-14.29896 17.59287,-19.31635 -13.251399,-39.39435 84.381089,28.43815 9.298241,-15.12878 43.626399,-26.87833 z"
     id="path2987"
     style="fill:#000000;stroke:#000000;stroke-width:1px;stroke-linecap:butt;stroke-linejoin:miter;stroke-opacity:1" />
</svg>
