<?xml version="1.0" encoding="UTF-8" standalone="no"?>
<!-- Created with Inkscape (http://www.inkscape.org/) -->

<svg
   xmlns:svg="http://www.w3.org/2000/svg"
   xmlns="http://www.w3.org/2000/svg"
   version="1.1"
   width="951.46399"
   height="458.479"
   viewBox="0 0 951.464 458.479"
   id="Layer_1"
   xml:space="preserve"><defs
   id="defs7" />
    
    <path
   d="m 950.379,424.126 c -1.34,-2.68 -10.596,-17.445 -13.863,-22.641 0.082,-1.012 -0.178,-1.531 -0.178,-1.531 l -31.213,-17.746 c -0.41,-0.793 -0.793,-1.176 -0.793,-1.176 l -35.451,-15.08 c -0.178,-1.107 -0.533,-1.887 -1.107,-2.229 -1.613,-0.547 -26.824,-10.117 -35.738,-13.508 -0.109,-0.547 -0.191,-0.875 -0.191,-0.875 -2.406,-1.066 -26.605,-13.453 -35.369,-17.965 -0.396,-0.848 -0.889,-1.559 -1.531,-1.941 -2.338,-1.559 -21.096,-14.205 -28.752,-19.359 -0.52,-1.477 -1.203,-2.598 -1.941,-3.172 -2.105,-1.859 -22.23,-18.512 -29.969,-24.938 -0.547,-1.941 -1.176,-3.473 -1.723,-4.457 -1.75,-3.254 -18.867,-30.133 -26.742,-42.485 14.574,-66.097 -20.398,-114.604 -23.871,-120.47 -4.266,-7.328 -22.531,-40.031 -49.438,-48.002 -2.926,-2.14 -7.027,-4.437 -14.656,-8.955 -1.859,-3.015 -3.5,-5.038 -4.484,-6.063 -4.689,-4.977 -15.764,-12.045 -31.5,-18.457 -0.027,-0.014 -0.055,-0.027 -0.082,-0.041 -1.066,-0.431 -2.174,-0.861 -3.281,-1.292 -1.23,-0.485 -2.406,-0.971 -3.664,-1.442 l -0.027,0.068 c -6.795,-5.018 -17.719,-10.568 -33.277,-12.476 -4.32,-0.813 -7.984,-1.606 -11.703,-2.235 -0.793,-0.185 -1.572,-0.369 -2.324,-0.561 -7.656,-4.717 -20.945,-12.223 -37.242,-12.223 -1.477,0 -2.898,0.048 -4.266,0.123 -0.547,0.027 -1.066,0.055 -1.613,0.096 -0.711,0.048 -1.367,0.109 -2.023,0.171 -5.988,0.554 -10.486,1.586 -12.906,2.263 -6.412,-3.397 -14.848,-6.46 -26.223,-5.264 -6.809,0.834 -11.43,1.914 -14.301,2.782 -0.547,0.157 -1.012,0.308 -1.449,0.458 -0.52,0.178 -0.957,0.342 -1.313,0.479 -4.348,-1.654 -9.215,-2.775 -15.258,-2.42 -6.344,0.479 -12.277,2.57 -16.734,4.601 -0.355,-0.137 -0.656,-0.26 -0.902,-0.349 -7.82,-3.268 -12.414,-4.573 -22.203,0 -5.332,2.242 -11.785,4.457 -17.035,6.289 -0.943,0.301 -1.832,0.574 -2.68,0.848 -2.379,-0.793 -3.965,-1.176 -4.457,-1.258 -1.408,-0.328 -3.008,-0.52 -4.676,-0.54 -4.813,-0.103 -10.568,1.183 -15.244,4.136 -4.58,2.933 -15.682,8.155 -20.891,10.773 l 0.014,0.068 c -0.109,0.055 -0.219,0.103 -0.328,0.157 -32.033,-2.892 -56.041,28.984 -64.996,37.646 -0.711,0.629 -1.764,1.791 -3.063,3.336 -0.629,-3.391 -1.258,-6.33 -1.832,-8.559 -3.609,-12.4 -8.176,-8.49 -11.102,2.29 -3.281,11.102 -25.813,40.168 -35.93,56.82 -1.791,2.741 -3.199,5.353 -4.457,7.902 -2.68,-1.661 -5.195,-1.333 -7.957,-0.062 -3.254,1.627 -4.566,1.955 -4.566,1.955 0,0 -2.297,-6.535 -2.297,-12.735 0,-5.879 -5.879,-22.203 -20.891,-41.802 -11.43,-14.69 -10.445,4.901 -11.758,15.025 -0.984,5.879 -5.223,30.693 11.43,49.314 0,0 0.465,0.991 -0.396,3.049 -2.283,-0.287 -4.58,-0.438 -6.795,-0.438 -9.816,0 -20.563,16.304 -24.172,22.326 -2.748,0.15 -5.141,0.479 -6.836,0.854 -7.848,1.306 -19.934,24.493 -23.516,35.595 -0.219,0.649 -0.273,1.299 -0.273,1.955 -3.063,1.169 -5.482,2.816 -7.246,4.58 -4.895,4.895 -12.414,18.286 -15.668,26.77 -0.109,0.287 -0.109,0.547 -0.191,0.834 -2.379,0.28 -4.184,0.957 -5.359,1.777 -2.939,2.29 -14.027,19.271 -17.637,28.417 -0.027,0.096 -0.027,0.178 -0.068,0.273 -2.201,0.506 -4.443,1.559 -6.795,3.322 -5.551,4.238 -24.473,25.129 -29.695,33.633 -5.223,8.477 -6.535,12.742 6.863,13.699 0.711,0.082 1.395,0.096 2.105,0.137 0.711,1.23 2.926,2.652 4.402,3.145 0.984,0.328 4.566,0.984 7.191,0.984 3.91,0 7.191,-0.656 11.43,-1.641 5.879,-0.984 58.133,-13.713 60.73,-14.697 2.625,-0.971 5.879,-1.299 5.879,-1.299 0.328,2.283 3.281,2.926 4.266,0.656 1.941,1.627 3.254,1.299 4.225,-0.656 1.299,1.627 2.939,0.971 3.596,-0.984 l 14.574,-4.457 c 2.434,0.711 4.949,0.109 8.613,-1.422 2.434,-0.875 11.813,-4.949 21.068,-8.162 0.123,0.643 0.26,1.285 0.479,1.955 0,0 3.924,12.414 5.551,17.309 1.641,4.895 11.758,22.859 29.395,29.395 2.953,1.313 4.238,3.254 4.895,4.566 0.875,1.449 7.328,4.156 8.148,-0.875 4.539,5.551 8.668,10.568 10.145,12.305 0.355,0.438 0.738,0.848 1.121,1.258 -4.457,7 -10.719,16.789 -12.551,19.633 -2.488,3.746 -4.594,9.789 -0.602,13.193 l -2.352,3.787 -0.137,1.613 c -2.174,0.191 -2.953,0.848 -4.43,2.324 -5.441,5.141 -10.623,11.211 -20.74,17.008 -0.889,0.273 -1.764,0.82 -2.447,1.6 -2.598,2.283 -7.164,7.506 -9.133,12.4 -1.641,3.924 -2.611,5.879 1.641,6.863 0.93,0.15 2.078,0.205 3.254,0.205 -0.328,1.6 0.301,2.652 2.953,3.063 3.309,0.766 8.586,0.342 11.676,-0.205 -0.041,1.285 0.684,2.133 3.008,2.488 3.91,0.602 10.514,0.096 13.098,-0.752 13.563,-0.971 18.102,-2.201 23.16,-2.83 4.895,-0.984 7.164,-3.609 9.461,-9.816 2.297,-6.18 6.535,-9.461 6.535,-19.906 0,-1.832 -0.178,-3.309 -0.438,-4.621 l 3.91,-6.207 c 0.902,-0.055 1.777,-0.287 2.406,-0.602 1.969,-1.313 3.254,-3.582 4.238,-5.223 1.586,-2.639 12.523,-19.742 16.68,-26.236 0.779,-0.533 1.531,-1.217 2.27,-2.174 1.367,-1.832 1.271,-3.855 -0.027,-6.234 1.395,0.055 2.898,0.082 4.594,0.027 2.434,-0.137 5.414,-0.164 8.777,-0.164 5.715,7.082 11.594,14.355 13.426,16.488 0.438,0.492 0.875,0.957 1.326,1.422 -4.471,6.973 -10.732,16.652 -12.756,19.469 -2.188,3.445 -4.566,9.789 -0.273,13.207 l -2.352,3.773 0.082,1.436 c -2.516,0.178 -3.445,0.971 -4.977,2.502 -5.209,5.223 -10.746,11.402 -20.863,16.953 -0.807,0.246 -1.613,0.711 -2.311,1.326 -2.611,2.611 -7.178,7.834 -9.146,12.729 -1.313,3.938 -2.297,5.879 1.969,6.535 0.93,0.219 2.051,0.328 3.199,0.383 -0.301,1.695 0.273,2.789 2.994,3.213 3.295,0.506 8.354,0.232 11.525,-0.383 -0.027,1.408 0.793,2.311 3.172,2.666 3.637,0.602 10.336,0.082 13.098,-0.779 13.617,-0.984 18.129,-2.502 22.832,-3.131 4.895,-0.656 7.164,-3.281 9.461,-9.475 2.297,-6.194 6.535,-9.475 6.535,-19.92 0,-1.641 -0.137,-3.008 -0.355,-4.238 l 4.184,-6.617 c 0.902,-0.055 1.777,-0.273 2.379,-0.574 1.613,-1.313 2.926,-3.582 3.91,-5.223 1.559,-2.844 12.004,-19.223 16.352,-26.059 0.902,-0.547 1.764,-1.258 2.598,-2.352 2.283,-2.625 1.313,-5.551 -1.969,-9.803 -1.531,-1.846 -7.492,-9.119 -13.357,-16.297 12.332,-2.188 23.721,-6.084 31.322,-13.084 10.896,-10.063 19.77,-20.398 26.113,-35.137 0,0 4.402,3.117 10.965,3.227 6.563,0.11 10.965,-5.865 10.965,-5.865 0,0 2.707,3.432 8.6,3.65 6.891,0.246 11.553,-6.918 11.553,-6.918 0,0 5.113,4.908 10.883,5.469 5.797,0.547 9.338,-6.125 9.338,-6.125 9.092,8.559 21.014,-0.711 21.014,-0.711 1.285,3.145 3.268,5.496 6.344,6.207 14.082,19.168 38.828,52.76 40.004,54.168 0.492,0.492 1.258,1.367 2.215,2.352 -4.457,7 -10.828,16.967 -12.688,19.852 -2.133,3.363 -4.484,9.543 -0.479,13.016 l -2.447,3.965 0.355,1.422 c -2.57,0.137 -3.391,0.93 -4.922,2.488 -5.236,5.223 -10.773,11.43 -20.918,16.98 -0.137,0.082 -0.246,0.205 -0.383,0.301 -0.656,0.301 -1.313,0.766 -1.887,1.34 -2.625,1.955 -6.863,7.492 -8.818,12.4 -1.313,3.596 -2.283,5.893 1.627,6.535 0.875,0.205 1.941,0.314 3.049,0.369 -0.314,1.695 0.301,2.803 2.83,3.227 3.309,0.506 8.586,0.219 11.84,-0.41 v 0.027 c -0.137,1.395 0.465,2.297 2.844,2.666 3.746,0.574 9.98,-0.123 12.783,-0.738 13.85,-0.971 18.717,-2.557 23.475,-3.186 4.895,-0.656 7.191,-3.254 9.488,-9.461 2.27,-6.207 6.508,-9.475 6.508,-19.934 0,-1.777 -0.164,-3.199 -0.383,-4.484 l 4.047,-6.344 c 0.984,-0.055 1.914,-0.273 2.543,-0.602 1.641,-1.299 2.953,-3.582 3.938,-5.223 1.531,-2.57 12.031,-19.195 16.379,-26.059 0.875,-0.547 1.736,-1.258 2.543,-2.352 1.969,-2.598 1.313,-5.551 -2.27,-9.461 -1.094,-1.408 -8.395,-10.746 -17.664,-22.613 -0.055,-0.656 -0.15,-1.285 -0.301,-1.887 l -28.574,-37.188 c 0.164,-0.137 0.328,-0.273 0.492,-0.41 v 0.055 c 0.082,0.137 0.246,0.246 0.355,0.383 0.984,1.422 2.625,2.051 5.182,1.559 0.615,-0.109 1.408,-0.41 2.338,-0.834 13.973,18.799 52.814,71.08 54.168,72.693 0.492,0.574 1.23,1.504 2.133,2.488 -4.457,7 -10.76,16.857 -12.592,19.715 -2.475,3.732 -4.881,9.816 -0.602,13.207 l -2.338,3.773 c 0,0 1.326,1.477 0.123,1.572 -2.365,0.178 -3.172,0.834 -4.689,2.338 -5.551,5.223 -10.773,11.43 -21.232,16.98 -0.848,0.492 -1.518,1.121 -2.146,1.805 -2.625,2.352 -7.027,7.438 -8.941,12.25 -1.641,3.91 -2.625,5.879 1.613,6.535 0.984,0.219 2.133,0.328 3.336,0.369 -0.438,1.791 0.055,2.885 2.871,3.541 3.336,0.506 8.613,0.027 11.73,-0.684 -0.137,1.354 0.547,2.27 2.967,2.652 4.252,0.957 11.771,0 13.713,-0.656 0.055,-0.027 0.068,-0.109 0.109,-0.137 12.988,-0.684 17.473,-2.188 22.422,-2.816 4.922,-0.984 7.191,-3.582 9.488,-9.789 2.27,-5.879 6.508,-9.475 6.508,-19.605 0,-1.914 -0.164,-3.445 -0.41,-4.813 l 3.828,-6.043 c 0.93,-0.082 1.832,-0.41 2.461,-0.902 1.969,-1.285 3.281,-3.582 4.266,-5.223 1.531,-2.57 12.031,-19.195 16.379,-26.059 0.875,-0.547 1.75,-1.258 2.557,-2.352 1.955,-2.598 0.971,-5.551 -2.283,-9.461 -0.766,-0.984 -5.141,-6.617 -11.361,-14.602 12.264,-4.785 28.205,-17.035 47.291,-45.719 9.297,6.125 27.207,17.883 29.367,18.84 1.039,0.656 3.09,1.477 5.879,1.395 9.734,5.783 27.945,16.543 31.035,18.211 1.066,0.602 2.516,0.766 4.184,0.602 6.781,3.787 27.016,15.066 31.076,16.707 1.08,0.424 2.338,0.328 3.705,-0.027 7.191,3.281 31.309,14.301 35.492,15.695 0.82,0.26 1.832,0.082 2.871,-0.273 8.873,3.172 35.82,12.797 38.268,13.344 0.602,0.191 1.326,0.027 2.119,-0.328 9.707,3.145 39.566,12.742 40.66,12.742 0.273,0 0.67,-0.205 1.148,-0.602 l 25.621,12.674 c 0,0 0.191,0.055 0.52,0.068 l 11.895,16.912 c 0,0 0.082,-0.096 0.219,-0.232 -1.914,3.322 -9.379,15.586 -9.379,15.586 0,0 0.219,-0.055 0.52,-0.109 -3.473,1.668 -26.906,13.016 -26.305,15.121 0.656,2.625 32.648,-8.805 32.648,-8.805 0,0 0.328,-1.613 -0.219,-3.227 0.793,1.832 0.219,3.227 0.219,3.227 l 13.918,-19.086 c 0.109,0.465 0.137,0.793 0.137,0.793 0,0 1.305,-3.26 -0.664,-6.856 z"
   id="path3"
   style="stroke:#000000;stroke-width:0.25;stroke-linejoin:round" />
    
</svg>